<svg id="Capa_1" enable-background="new 0 0 510 510" height="512" viewBox="0 0 510 510" width="512" xmlns="http://www.w3.org/2000/svg"><g><g><g><path d="m255 0c-98.131 0-158.58 55.352-158.747 55.445 0 0-2.513 3.137-2.983 5.222-3.818 16.948-7.385 39.663-7.385 56.238 0 140.833 118.763 254.972 259.596 254.972 54.231 0 114.568-25.992 154.949-57.243.903-.699 3.769-5.396 3.769-5.396.178-1.087 5.8-23.477 5.8-54.239.001-140.832-114.166-254.999-254.999-254.999z" fill="#9b14aa"/></g><path d="m345.459 364.679c-140.833 0-255-114.167-255-255 0-18.615 2.007-36.753 5.795-54.234-58.645 46.72-96.254 118.747-96.254 199.555l339.718 240.559c56.463-19.899 104.075-59.154 134.477-110.172l-1.074-19.689 17.77-13.687c5.625-13.679 10.103-27.974 13.309-42.772-43.56 34.695-98.725 55.44-158.741 55.44z" fill="#850f96"/></g><g><path d="m376.871 34.251c4.111 16.016 16.617 28.522 32.633 32.633-16.016 4.111-28.522 16.617-32.633 32.633-4.111-16.016-16.617-28.522-32.633-32.633 16.016-4.111 28.522-16.617 32.633-32.633z" fill="#ffd23c"/></g><g><path d="m95.362 17.934c4.111 16.016 16.617 28.522 32.633 32.633-16.016 4.111-28.522 16.617-32.633 32.633-4.111-16.016-16.617-28.522-32.633-32.633 16.015-4.11 28.522-16.617 32.633-32.633z" fill="#ffd23c"/></g><g><path d="m478.366 330.605c-4.111 16.016-16.617 28.522-32.633 32.633 12.303 3.158 22.518 11.281 28.464 22.133 6.335-10.633 11.92-21.778 16.685-33.364-5.973-5.738-10.382-13.09-12.516-21.402z" fill="#ffd23c"/></g><g><path d="m297.943 17.934c2.056 8.008 8.309 14.261 16.317 16.317-8.008 2.056-14.261 8.309-16.317 16.317-2.056-8.008-8.309-14.261-16.317-16.317 8.008-2.056 14.261-8.309 16.317-16.317z" fill="#ffd23c"/></g><g><path d="m452.564 160.035c2.056 8.008 8.309 14.261 16.317 16.317-8.008 2.055-14.261 8.309-16.317 16.317-2.056-8.008-8.309-14.261-16.317-16.317 8.008-2.056 14.261-8.309 16.317-16.317z" fill="#ffd23c"/></g><g><path d="m472.944 42.383c2.567 10.002 10.378 17.813 20.38 20.38-10.002 2.567-17.813 10.378-20.38 20.38-2.567-10.002-10.378-17.813-20.38-20.38 10.002-2.567 17.812-10.377 20.38-20.38z" fill="#ffd23c"/></g><g><g><path d="m398.805 436.156c24.006-35.526 38.025-78.355 38.025-124.459 0-122.92-99.646-222.567-222.567-222.567-55.824 0-106.845 20.555-145.915 54.506v186.663c0 58.463 47.394 105.857 105.857 105.857z" fill="#d3b8d1"/></g><g><path d="m70.384 209.93c0-27.983 5.179-54.753 14.607-79.422-40.588 29.01-71.021 71.316-84.933 120.555-.021 1.312-.058 2.62-.058 3.937 0 140.833 114.167 255 255 255 29.619 0 58.143-5.09 84.713-14.454 37.145-25.401 66.205-61.76 82.51-104.427-36.441 26.046-81.066 41.378-129.273 41.378-122.92 0-222.566-99.647-222.566-222.567z" fill="#b094af"/></g><g><g><ellipse cx="168.755" cy="180.295" fill="#c6adc4" rx="64.287" ry="50.405"/></g><g><path d="m112.457 193.763c0-27.838 28.782-50.405 64.287-50.405 22.428 0 42.164 9.011 53.666 22.661-7.854-20.883-32.477-36.129-61.656-36.129-35.505 0-64.287 22.567-64.287 50.405 0 10.253 3.915 19.785 10.621 27.744-1.702-4.528-2.631-9.316-2.631-14.276z" fill="#b094af"/></g></g><g><g><ellipse cx="82.301" cy="332.386" fill="#b094af" rx="49.836" ry="39.074"/></g><g><path d="m123.568 354.296c-15.375-18.022-27.921-38.526-36.96-60.83-1.421-.095-2.855-.155-4.308-.155-27.524 0-49.836 17.494-49.836 39.074s22.312 39.074 49.836 39.074c17.168.001 32.305-6.806 41.268-17.163z" fill="#a98ba5"/></g><g><path d="m38.658 342.826c0-21.58 22.312-39.074 49.836-39.074 17.387 0 32.686 6.985 41.603 17.567-6.088-16.189-25.176-28.008-47.796-28.008-27.524 0-49.836 17.494-49.836 39.074 0 7.948 3.035 15.338 8.234 21.507-1.321-3.509-2.041-7.22-2.041-11.066z" fill="#a98ba5"/></g><g><path d="m40.698 353.893c-10.06-26.747 17.205-51.431 50.429-50.075-1.587-3.406-3.101-6.854-4.518-10.352-41.968-2.819-68.528 33.591-45.911 60.427z" fill="#997e97"/></g></g><g><g><ellipse cx="355.263" cy="404.772" fill="#c6adc4" rx="49.836" ry="39.074"/></g><g><path d="m355.263 443.846c27.524 0 49.836-17.494 49.836-39.074 0-.841-.046-1.672-.112-2.5-25.979 15.167-55.308 25.217-86.607 28.778 9.117 7.861 22.265 12.796 36.883 12.796z" fill="#a98ba5"/></g><g><path d="m311.621 415.213c0-21.58 22.312-39.074 49.836-39.074 17.387 0 32.686 6.985 41.603 17.567-6.088-16.189-25.176-28.008-47.796-28.008-27.524 0-49.836 17.494-49.836 39.074 0 7.948 3.035 15.338 8.234 21.507-1.321-3.51-2.041-7.221-2.041-11.066z" fill="#b094af"/></g></g><g><path d="m167.44 443.819c-22.714 0-42.639 9.321-53.93 23.344 33.522 22.4 72.646 37.071 114.83 41.454 1.851-4.681 2.849-9.656 2.849-14.815-.001-27.605-28.542-49.983-63.749-49.983z" fill="#a98ba5"/><path d="m167.44 443.819c-22.714 0-42.639 9.322-53.93 23.344 4.194 2.803 8.478 5.481 12.842 8.036 11.694-11.012 29.305-18.024 49.01-18.024 22.24 0 41.81 8.935 53.217 22.471-7.789-20.708-32.205-35.827-61.139-35.827z" fill="#997e97"/></g><g><g><ellipse cx="344.238" cy="229.444" fill="#c6adc4" rx="64.287" ry="50.405"/></g><g><path d="m287.939 242.912c0-27.838 28.782-50.405 64.287-50.405 22.428 0 42.164 9.011 53.666 22.661-7.854-20.883-32.477-36.129-61.656-36.129-35.505 0-64.287 22.567-64.287 50.405 0 10.253 3.915 19.785 10.621 27.744-1.702-4.528-2.631-9.316-2.631-14.276z" fill="#b094af"/></g><g><ellipse cx="223.633" cy="340.196" fill="#c6adc4" rx="42.079" ry="32.993"/></g><g><path d="m186.783 349.011c0-18.221 18.84-32.993 42.079-32.993 14.68 0 27.598 5.898 35.127 14.833-5.141-13.669-21.258-23.648-40.357-23.648-23.24 0-42.079 14.771-42.079 32.993 0 6.711 2.562 12.95 6.952 18.16-1.114-2.964-1.722-6.098-1.722-9.345z" fill="#b094af"/></g></g><g><path d="m202.056 118.49c-.755 0-1.521-.146-2.262-.455-9.353-3.899-19.28-5.876-29.508-5.876-3.25 0-5.884-2.634-5.884-5.884s2.634-5.884 5.884-5.884c11.79 0 23.242 2.282 34.036 6.782 3 1.25 4.417 4.695 3.167 7.695-.942 2.26-3.13 3.622-5.433 3.622z" fill="#c6adc4"/></g><g><path d="m89.665 213.009c-2.691 0-5.119-1.858-5.735-4.594-1.433-6.365-2.159-12.929-2.159-19.509 0-3.25 2.634-5.884 5.884-5.884s5.884 2.634 5.884 5.884c0 5.712.63 11.407 1.872 16.926.713 3.17-1.278 6.318-4.449 7.032-.435.098-.869.145-1.297.145z" fill="#c6adc4"/></g><g><path d="m327.692 302.354c-40.14 0-72.795-32.656-72.795-72.795s32.655-72.795 72.795-72.795c3.25 0 5.884 2.634 5.884 5.884s-2.634 5.884-5.884 5.884c-33.65 0-61.027 27.377-61.027 61.028s27.377 61.028 61.027 61.028c3.25 0 5.884 2.634 5.884 5.884s-2.634 5.882-5.884 5.882z" fill="#c6adc4"/></g><g><path d="m408.248 369.455c-1.757 0-3.495-.784-4.654-2.28-7.6-9.806-17.762-17.179-29.388-21.322-3.062-1.091-4.658-4.456-3.568-7.518 1.091-3.061 4.458-4.657 7.518-3.567 13.748 4.898 25.761 13.612 34.739 25.199 1.991 2.568 1.522 6.264-1.046 8.255-1.073.83-2.342 1.233-3.601 1.233z" fill="#c6adc4"/></g><g><path d="m282.1 412.565c-3.25 0-5.884-2.634-5.884-5.884 0-42.084 34.237-76.321 76.321-76.321 3.25 0 5.884 2.634 5.884 5.884s-2.634 5.884-5.884 5.884c-35.595 0-64.554 28.958-64.554 64.554 0 3.249-2.633 5.883-5.883 5.883z" fill="#c6adc4"/></g><g><path d="m82.301 410.656c22.628 0 44.141-9.791 59.021-26.861 2.136-2.45 1.881-6.166-.569-8.301-2.449-2.136-6.166-1.881-8.301.569-12.646 14.506-30.925 22.826-50.151 22.826-23.045 0-43.383-11.786-55.32-29.643 5.744 11.443 12.317 22.397 19.653 32.776 10.704 5.505 22.823 8.634 35.667 8.634z" fill="#a98ba5"/></g><g><path d="m154.687 338.27c-3.25 0-5.884-2.634-5.884-5.884 0-36.67-29.833-66.503-66.502-66.503-3.25 0-5.884-2.634-5.884-5.884s2.634-5.884 5.884-5.884c43.158 0 78.27 35.112 78.27 78.271 0 3.249-2.634 5.884-5.884 5.884z" fill="#c6adc4"/></g><g><path d="m249.701 504.622c-3.25 0-5.884-2.634-5.884-5.884 0-40.545-32.986-73.531-73.531-73.531-18.616 0-36.376 6.97-50.01 19.625-2.382 2.211-6.104 2.072-8.315-.31-2.21-2.382-2.072-6.104.31-8.315 15.817-14.682 36.421-22.768 58.016-22.768 47.034 0 85.299 38.265 85.299 85.298-.001 3.251-2.635 5.885-5.885 5.885z" fill="#a98ba5"/></g></g></g></svg>